<mxfile host="app.diagrams.net" modified="2023-04-15T02:07:26.760Z" agent="Mozilla/5.0 (Windows NT 10.0; Win64; x64) AppleWebKit/537.36 (KHTML, like Gecko) Chrome/111.0.0.0 Safari/537.36 Edg/111.0.1661.62" etag="Nvuo8Q_MOmKenHlAAsnA" version="21.1.8" type="github">
  <diagram name="第 1 页" id="vEHfGsQxvtqJ4DpQ7ryH">
    <mxGraphModel dx="1221" dy="775" grid="1" gridSize="10" guides="1" tooltips="1" connect="1" arrows="1" fold="1" page="1" pageScale="1" pageWidth="827" pageHeight="1169" math="0" shadow="0">
      <root>
        <mxCell id="0" />
        <mxCell id="1" parent="0" />
        <mxCell id="-860Xp-ZeTo-iASV64dC-1" value="" style="rounded=1;whiteSpace=wrap;html=1;" vertex="1" parent="1">
          <mxGeometry x="160" y="70" width="120" height="60" as="geometry" />
        </mxCell>
        <mxCell id="-860Xp-ZeTo-iASV64dC-2" value="Assets" style="childLayout=tableLayout;recursiveResize=0;strokeColor=#98bf21;fillColor=#A7C942;shadow=1;" vertex="1" parent="1">
          <mxGeometry x="70" y="585" width="280" height="180" as="geometry" />
        </mxCell>
        <mxCell id="-860Xp-ZeTo-iASV64dC-7" value="" style="shape=tableRow;horizontal=0;startSize=0;swimlaneHead=0;swimlaneBody=0;top=0;left=0;bottom=0;right=0;dropTarget=0;collapsible=0;recursiveResize=0;expand=0;fontStyle=0;strokeColor=inherit;fillColor=#ffffff;" vertex="1" parent="-860Xp-ZeTo-iASV64dC-2">
          <mxGeometry width="280" height="36" as="geometry" />
        </mxCell>
        <mxCell id="-860Xp-ZeTo-iASV64dC-8" value="Value 1" style="connectable=0;recursiveResize=0;strokeColor=inherit;fillColor=inherit;align=center;whiteSpace=wrap;html=1;" vertex="1" parent="-860Xp-ZeTo-iASV64dC-7">
          <mxGeometry width="93" height="36" as="geometry">
            <mxRectangle width="93" height="36" as="alternateBounds" />
          </mxGeometry>
        </mxCell>
        <mxCell id="-860Xp-ZeTo-iASV64dC-9" value="Value 2" style="connectable=0;recursiveResize=0;strokeColor=inherit;fillColor=inherit;align=center;whiteSpace=wrap;html=1;" vertex="1" parent="-860Xp-ZeTo-iASV64dC-7">
          <mxGeometry x="93" width="94" height="36" as="geometry">
            <mxRectangle width="94" height="36" as="alternateBounds" />
          </mxGeometry>
        </mxCell>
        <mxCell id="-860Xp-ZeTo-iASV64dC-10" value="Value 3" style="connectable=0;recursiveResize=0;strokeColor=inherit;fillColor=inherit;align=center;whiteSpace=wrap;html=1;" vertex="1" parent="-860Xp-ZeTo-iASV64dC-7">
          <mxGeometry x="187" width="93" height="36" as="geometry">
            <mxRectangle width="93" height="36" as="alternateBounds" />
          </mxGeometry>
        </mxCell>
        <mxCell id="-860Xp-ZeTo-iASV64dC-11" value="" style="shape=tableRow;horizontal=0;startSize=0;swimlaneHead=0;swimlaneBody=0;top=0;left=0;bottom=0;right=0;dropTarget=0;collapsible=0;recursiveResize=0;expand=0;fontStyle=1;strokeColor=inherit;fillColor=#EAF2D3;" vertex="1" parent="-860Xp-ZeTo-iASV64dC-2">
          <mxGeometry y="36" width="280" height="35" as="geometry" />
        </mxCell>
        <mxCell id="-860Xp-ZeTo-iASV64dC-12" value="Value 4" style="connectable=0;recursiveResize=0;strokeColor=inherit;fillColor=inherit;whiteSpace=wrap;html=1;" vertex="1" parent="-860Xp-ZeTo-iASV64dC-11">
          <mxGeometry width="93" height="35" as="geometry">
            <mxRectangle width="93" height="35" as="alternateBounds" />
          </mxGeometry>
        </mxCell>
        <mxCell id="-860Xp-ZeTo-iASV64dC-13" value="Value 5" style="connectable=0;recursiveResize=0;strokeColor=inherit;fillColor=inherit;whiteSpace=wrap;html=1;" vertex="1" parent="-860Xp-ZeTo-iASV64dC-11">
          <mxGeometry x="93" width="94" height="35" as="geometry">
            <mxRectangle width="94" height="35" as="alternateBounds" />
          </mxGeometry>
        </mxCell>
        <mxCell id="-860Xp-ZeTo-iASV64dC-14" value="Value 6" style="connectable=0;recursiveResize=0;strokeColor=inherit;fillColor=inherit;whiteSpace=wrap;html=1;" vertex="1" parent="-860Xp-ZeTo-iASV64dC-11">
          <mxGeometry x="187" width="93" height="35" as="geometry">
            <mxRectangle width="93" height="35" as="alternateBounds" />
          </mxGeometry>
        </mxCell>
        <mxCell id="-860Xp-ZeTo-iASV64dC-15" value="" style="shape=tableRow;horizontal=0;startSize=0;swimlaneHead=0;swimlaneBody=0;top=0;left=0;bottom=0;right=0;dropTarget=0;collapsible=0;recursiveResize=0;expand=0;fontStyle=0;strokeColor=inherit;fillColor=#ffffff;" vertex="1" parent="-860Xp-ZeTo-iASV64dC-2">
          <mxGeometry y="71" width="280" height="37" as="geometry" />
        </mxCell>
        <mxCell id="-860Xp-ZeTo-iASV64dC-16" value="Value 7" style="connectable=0;recursiveResize=0;strokeColor=inherit;fillColor=inherit;fontStyle=0;align=center;whiteSpace=wrap;html=1;" vertex="1" parent="-860Xp-ZeTo-iASV64dC-15">
          <mxGeometry width="93" height="37" as="geometry">
            <mxRectangle width="93" height="37" as="alternateBounds" />
          </mxGeometry>
        </mxCell>
        <mxCell id="-860Xp-ZeTo-iASV64dC-17" value="Value 8" style="connectable=0;recursiveResize=0;strokeColor=inherit;fillColor=inherit;fontStyle=0;align=center;whiteSpace=wrap;html=1;" vertex="1" parent="-860Xp-ZeTo-iASV64dC-15">
          <mxGeometry x="93" width="94" height="37" as="geometry">
            <mxRectangle width="94" height="37" as="alternateBounds" />
          </mxGeometry>
        </mxCell>
        <mxCell id="-860Xp-ZeTo-iASV64dC-18" value="Value 9" style="connectable=0;recursiveResize=0;strokeColor=inherit;fillColor=inherit;fontStyle=0;align=center;whiteSpace=wrap;html=1;" vertex="1" parent="-860Xp-ZeTo-iASV64dC-15">
          <mxGeometry x="187" width="93" height="37" as="geometry">
            <mxRectangle width="93" height="37" as="alternateBounds" />
          </mxGeometry>
        </mxCell>
        <mxCell id="-860Xp-ZeTo-iASV64dC-19" value="" style="shape=tableRow;horizontal=0;startSize=0;swimlaneHead=0;swimlaneBody=0;top=0;left=0;bottom=0;right=0;dropTarget=0;collapsible=0;recursiveResize=0;expand=0;fontStyle=1;strokeColor=inherit;fillColor=#EAF2D3;" vertex="1" parent="-860Xp-ZeTo-iASV64dC-2">
          <mxGeometry y="108" width="280" height="35" as="geometry" />
        </mxCell>
        <mxCell id="-860Xp-ZeTo-iASV64dC-20" value="Value 10" style="connectable=0;recursiveResize=0;strokeColor=inherit;fillColor=inherit;whiteSpace=wrap;html=1;" vertex="1" parent="-860Xp-ZeTo-iASV64dC-19">
          <mxGeometry width="93" height="35" as="geometry">
            <mxRectangle width="93" height="35" as="alternateBounds" />
          </mxGeometry>
        </mxCell>
        <mxCell id="-860Xp-ZeTo-iASV64dC-21" value="Value 11" style="connectable=0;recursiveResize=0;strokeColor=inherit;fillColor=inherit;whiteSpace=wrap;html=1;" vertex="1" parent="-860Xp-ZeTo-iASV64dC-19">
          <mxGeometry x="93" width="94" height="35" as="geometry">
            <mxRectangle width="94" height="35" as="alternateBounds" />
          </mxGeometry>
        </mxCell>
        <mxCell id="-860Xp-ZeTo-iASV64dC-22" value="Value 12" style="connectable=0;recursiveResize=0;strokeColor=inherit;fillColor=inherit;whiteSpace=wrap;html=1;" vertex="1" parent="-860Xp-ZeTo-iASV64dC-19">
          <mxGeometry x="187" width="93" height="35" as="geometry">
            <mxRectangle width="93" height="35" as="alternateBounds" />
          </mxGeometry>
        </mxCell>
        <mxCell id="-860Xp-ZeTo-iASV64dC-3" style="shape=tableRow;horizontal=0;startSize=0;swimlaneHead=0;swimlaneBody=0;top=0;left=0;bottom=0;right=0;dropTarget=0;collapsible=0;recursiveResize=0;expand=0;fontStyle=0;strokeColor=inherit;fillColor=#ffffff;" vertex="1" parent="-860Xp-ZeTo-iASV64dC-2">
          <mxGeometry y="143" width="280" height="37" as="geometry" />
        </mxCell>
        <mxCell id="-860Xp-ZeTo-iASV64dC-4" value="Title 1" style="connectable=0;recursiveResize=0;strokeColor=inherit;fillColor=#A7C942;align=center;fontStyle=1;fontColor=#FFFFFF;html=1;" vertex="1" parent="-860Xp-ZeTo-iASV64dC-3">
          <mxGeometry width="93" height="37" as="geometry">
            <mxRectangle width="93" height="37" as="alternateBounds" />
          </mxGeometry>
        </mxCell>
        <mxCell id="-860Xp-ZeTo-iASV64dC-5" value="标题 2" style="connectable=0;recursiveResize=0;strokeColor=inherit;fillColor=#A7C942;align=center;fontStyle=1;fontColor=#FFFFFF;html=1;" vertex="1" parent="-860Xp-ZeTo-iASV64dC-3">
          <mxGeometry x="93" width="94" height="37" as="geometry">
            <mxRectangle width="94" height="37" as="alternateBounds" />
          </mxGeometry>
        </mxCell>
        <mxCell id="-860Xp-ZeTo-iASV64dC-6" value="Title 3" style="connectable=0;recursiveResize=0;strokeColor=inherit;fillColor=#A7C942;align=center;fontStyle=1;fontColor=#FFFFFF;html=1;" vertex="1" parent="-860Xp-ZeTo-iASV64dC-3">
          <mxGeometry x="187" width="93" height="37" as="geometry">
            <mxRectangle width="93" height="37" as="alternateBounds" />
          </mxGeometry>
        </mxCell>
        <mxCell id="-860Xp-ZeTo-iASV64dC-23" value="" style="shape=image;html=1;verticalLabelPosition=bottom;verticalAlign=top;imageAspect=0;image=img/clipart/Gear_128x128.png" vertex="1" parent="1">
          <mxGeometry x="50" y="220" width="50" height="60" as="geometry" />
        </mxCell>
        <mxCell id="-860Xp-ZeTo-iASV64dC-24" value="Actor" style="shape=umlActor;verticalLabelPosition=bottom;verticalAlign=top;html=1;" vertex="1" parent="1">
          <mxGeometry x="170" y="190" width="30" height="60" as="geometry" />
        </mxCell>
        <mxCell id="-860Xp-ZeTo-iASV64dC-25" value="" style="shape=loopLimit;whiteSpace=wrap;html=1;" vertex="1" parent="1">
          <mxGeometry x="290" y="430" width="100" height="80" as="geometry" />
        </mxCell>
        <mxCell id="-860Xp-ZeTo-iASV64dC-26" value="发短信" style="text;html=1;align=center;verticalAlign=middle;resizable=0;points=[];autosize=1;strokeColor=none;fillColor=none;" vertex="1" parent="1">
          <mxGeometry x="350" y="208" width="60" height="30" as="geometry" />
        </mxCell>
      </root>
    </mxGraphModel>
  </diagram>
</mxfile>
